<svg width="27" height="27" viewBox="0 0 27 27" fill="none" xmlns="http://www.w3.org/2000/svg">
<mask id="mask0_321_1072" style="mask-type:luminance" maskUnits="userSpaceOnUse" x="0" y="0" width="27" height="27">
<path d="M13.5 27C20.9558 27 27 20.9558 27 13.5C27 6.04416 20.9558 0 13.5 0C6.04416 0 0 6.04416 0 13.5C0 20.9558 6.04416 27 13.5 27Z" fill="white"/>
</mask>
<g mask="url(#mask0_321_1072)">
<path d="M0 0L0.421875 1.16016L0 2.37305V3.58594L1.6875 6.43359L0 9.28125V10.9688L1.6875 13.5L0 16.0312V17.7188L1.6875 20.5664L0 23.4141V27L1.16016 26.5781L2.37305 27H3.58594L6.43359 25.3125L9.28125 27H10.9688L13.5 25.3125L16.0312 27H17.7188L20.5664 25.3125L23.4141 27H27L26.5781 25.8398L27 24.627V23.4141L25.3125 20.5664L27 17.7188V16.0312L25.3125 13.5L27 10.9688V9.28125L25.3125 6.43359L27 3.58594V0L25.8398 0.421875L24.627 0H23.4141L20.5664 1.6875L17.7188 0H16.0312L13.5 1.6875L10.9688 0H9.28125L6.43359 1.6875L3.58594 0H0Z" fill="#EEEEEE"/>
<path d="M17.7188 0V5.69531L23.4141 0H17.7188ZM27 3.58594L21.3047 9.28125H27V3.58594ZM0 9.28125H5.69531L0 3.58594V9.28125ZM3.58594 0L9.28125 5.69531V0H3.58594ZM9.28125 27V21.3047L3.58594 27H9.28125ZM0 23.4141L5.69531 17.7188H0V23.4141ZM27 17.7188H21.3047L27 23.4141V17.7188ZM23.4141 27L17.7188 21.3047V27H23.4141Z" fill="#0052B4"/>
<path d="M0 0V2.37305L6.9082 9.28125H9.28125L0 0ZM10.9688 0V10.9688H0V16.0312H10.9688V27H16.0312V16.0312H27V10.9688H16.0312V0H10.9688ZM24.627 0L17.7188 6.9082V9.28125L27 0H24.627ZM9.28125 17.7188L0 27H2.37305L9.28125 20.0918V17.7188ZM17.7188 17.7188L27 27V24.627L20.0918 17.7188H17.7188Z" fill="#D80027"/>
</g>
</svg>
