<svg width="28" height="28" viewBox="0 0 28 28" fill="none" xmlns="http://www.w3.org/2000/svg">
<path d="M22.1667 10.5C22.1672 9.09405 21.8048 7.71178 21.1144 6.48699C20.4241 5.2622 19.4292 4.23638 18.2262 3.50883C17.0231 2.78127 15.6526 2.37663 14.2473 2.33407C12.842 2.2915 11.4495 2.61246 10.2046 3.26587C8.95971 3.91929 7.9046 4.88302 7.14139 6.06378C6.37818 7.24455 5.93273 8.60235 5.84816 10.0058C5.76359 11.4092 6.04277 12.8106 6.65866 14.0745C7.27455 15.3384 8.2063 16.4218 9.36371 17.22L5.83338 23.3333L8.46538 23.4418L9.87471 25.6667L13.9184 18.662C13.9464 18.662 13.972 18.6667 14 18.6667C14.028 18.6667 14.0537 18.6632 14.0817 18.662L18.1254 25.6667L19.5627 23.4897L22.1667 23.3333L18.6364 17.22C19.7256 16.4701 20.6161 15.4665 21.2311 14.2958C21.8461 13.1251 22.1672 11.8224 22.1667 10.5ZM8.16671 10.5C8.16671 9.34627 8.50883 8.21846 9.1498 7.25917C9.79078 6.29989 10.7018 5.55221 11.7677 5.1107C12.8336 4.66919 14.0065 4.55367 15.1381 4.77875C16.2696 5.00383 17.309 5.5594 18.1248 6.37521C18.9406 7.19102 19.4962 8.23042 19.7213 9.36197C19.9464 10.4935 19.8309 11.6664 19.3893 12.7323C18.9478 13.7982 18.2002 14.7093 17.2409 15.3502C16.2816 15.9912 15.1538 16.3333 14 16.3333C12.4529 16.3333 10.9692 15.7187 9.87525 14.6248C8.78129 13.5308 8.16671 12.0471 8.16671 10.5Z" fill="white"/>
<path d="M14 14C15.933 14 17.5 12.433 17.5 10.5C17.5 8.567 15.933 7 14 7C12.067 7 10.5 8.567 10.5 10.5C10.5 12.433 12.067 14 14 14Z" fill="white"/>
</svg>
