<svg width="18" height="24" viewBox="0 0 18 24" fill="none" xmlns="http://www.w3.org/2000/svg">
<path d="M17.1666 8.5C17.1672 7.09405 16.8047 5.71178 16.1144 4.48699C15.424 3.2622 14.4292 2.23638 13.2261 1.50883C12.023 0.781273 10.6525 0.376629 9.24722 0.334066C7.84191 0.291503 6.44942 0.612462 5.20454 1.26587C3.95965 1.91929 2.90454 2.88302 2.14133 4.06378C1.37812 5.24455 0.932673 6.60235 0.848103 8.00575C0.763532 9.40915 1.0427 10.8106 1.6586 12.0745C2.27449 13.3384 3.20624 14.4218 4.36365 15.22L0.833314 21.3333L3.46531 21.4418L4.87465 23.6667L8.91831 16.662C8.94631 16.662 8.97198 16.6667 8.99998 16.6667C9.02798 16.6667 9.05365 16.6632 9.08165 16.662L13.1253 23.6667L14.5626 21.4897L17.1666 21.3333L13.6363 15.22C14.7255 14.4701 15.616 13.4665 16.231 12.2958C16.8461 11.1251 17.1672 9.82241 17.1666 8.5ZM3.16665 8.5C3.16665 7.34627 3.50877 6.21846 4.14974 5.25917C4.79072 4.29989 5.70176 3.55221 6.76766 3.1107C7.83356 2.66919 9.00645 2.55367 10.138 2.77875C11.2696 3.00383 12.309 3.5594 13.1248 4.37521C13.9406 5.19102 14.4961 6.23042 14.7212 7.36197C14.9463 8.49353 14.8308 9.66642 14.3893 10.7323C13.9478 11.7982 13.2001 12.7093 12.2408 13.3502C11.2815 13.9912 10.1537 14.3333 8.99998 14.3333C7.45289 14.3333 5.96915 13.7188 4.87519 12.6248C3.78123 11.5308 3.16665 10.0471 3.16665 8.5Z" fill="#05A8AA"/>
</svg>
