<svg width="28" height="28" viewBox="0 0 28 28" fill="none" xmlns="http://www.w3.org/2000/svg">
<path d="M22.1666 10.5C22.1672 9.09405 21.8047 7.71178 21.1144 6.48699C20.424 5.2622 19.4292 4.23638 18.2261 3.50883C17.023 2.78127 15.6525 2.37663 14.2472 2.33407C12.8419 2.2915 11.4494 2.61246 10.2045 3.26587C8.95965 3.91929 7.90454 4.88302 7.14133 6.06378C6.37812 7.24455 5.93267 8.60235 5.8481 10.0058C5.76353 11.4092 6.0427 12.8106 6.6586 14.0745C7.27449 15.3384 8.20624 16.4218 9.36365 17.22L5.83331 23.3333L8.46531 23.4418L9.87465 25.6667L13.9183 18.662C13.9463 18.662 13.972 18.6667 14 18.6667C14.028 18.6667 14.0536 18.6632 14.0816 18.662L18.1253 25.6667L19.5626 23.4897L22.1666 23.3333L18.6363 17.22C19.7255 16.4701 20.616 15.4665 21.231 14.2958C21.8461 13.1251 22.1672 11.8224 22.1666 10.5ZM8.16665 10.5C8.16665 9.34627 8.50877 8.21846 9.14974 7.25917C9.79072 6.29989 10.7018 5.55221 11.7677 5.1107C12.8336 4.66919 14.0065 4.55367 15.138 4.77875C16.2696 5.00383 17.309 5.5594 18.1248 6.37521C18.9406 7.19102 19.4961 8.23042 19.7212 9.36197C19.9463 10.4935 19.8308 11.6664 19.3893 12.7323C18.9478 13.7982 18.2001 14.7093 17.2408 15.3502C16.2815 15.9912 15.1537 16.3333 14 16.3333C12.4529 16.3333 10.9692 15.7187 9.87519 14.6248C8.78123 13.5308 8.16665 12.0471 8.16665 10.5Z" fill="#05A8AA"/>
<path d="M14 14C15.933 14 17.5 12.433 17.5 10.5C17.5 8.567 15.933 7 14 7C12.067 7 10.5 8.567 10.5 10.5C10.5 12.433 12.067 14 14 14Z" fill="#05A8AA"/>
</svg>
